# xmcd
#
# Track frame offsets: 
#        150
#        20027
#        36857
#        63142
#        75994
#        94902
#        113370
#        133430
#        150404
#        163518
#
# Disc length: 2437 seconds
#
# Revision: 0
# Processed by: cddbd v1.5.2PL0 Copyright (c) Steve Scherf et al.
# Submitted via: ExactAudioCopy v0.95a5
#
DISCID=7109830a
DTITLE=Verde River Band - Playing In A Band
DYEAR=2002
DGENRE=Blues
TTITLE0=Say Goodbye To The Blues
TTITLE1=In The City
TTITLE2=The Whiner
TTITLE3=Why Would I Want To Go Home
TTITLE4=Nothing Ever Means A Thing
TTITLE5=Playing In A Band
TTITLE6=Imagination
TTITLE7=57 Fury
TTITLE8=Postman
TTITLE9=Change
EXTD=
EXTT0=
EXTT1=
EXTT2=
EXTT3=
EXTT4=
EXTT5=
EXTT6=
EXTT7=
EXTT8=
EXTT9=
PLAYORDER=
